<svg xmlns="http://www.w3.org/2000/svg" width="30" height="32" viewBox="0 0 15 16">
  <defs>
    <style>
      .cls-1 {
        fill: #ffba00;
        fill-rule: evenodd;
      }
    </style>
  </defs>
  <path id="Forme_1286" data-name="Forme 1286" class="cls-1" d="M4173.41,2316.34h-0.26v-3.92l-4.06-4.42h-6.93a2.132,2.132,0,0,0-2.16,2.1v11.8a2.132,2.132,0,0,0,2.16,2.1H4171a2.124,2.124,0,0,0,2.15-2.1v-0.01h0.26a1.567,1.567,0,0,0,1.59-1.55v-2.45A1.567,1.567,0,0,0,4173.41,2316.34Zm-4.04-6.53,2.12,2.3h-2.12v-2.3Zm2.76,12.09a1.116,1.116,0,0,1-1.13,1.1h-8.84a1.116,1.116,0,0,1-1.13-1.1v-11.8a1.116,1.116,0,0,1,1.13-1.1h6.19v4.11h3.78v3.23h-5.38a1.575,1.575,0,0,0-1.6,1.55v2.45a1.575,1.575,0,0,0,1.6,1.55h5.38v0.01Zm1.84-1.56a0.557,0.557,0,0,1-.56.55h-6.66a0.559,0.559,0,0,1-.57-0.55v-2.45a0.553,0.553,0,0,1,.57-0.55h6.66a0.551,0.551,0,0,1,.56.55v2.45Z" transform="translate(-4160 -2308)"/>
</svg>
