<?xml version="1.0" encoding="utf-8"?>
<!-- Generator: Adobe Illustrator 23.0.6, SVG Export Plug-In . SVG Version: 6.00 Build 0)  -->
<svg version="1.1" id="Calque_1" xmlns="http://www.w3.org/2000/svg" xmlns:xlink="http://www.w3.org/1999/xlink" x="0px" y="0px"
	 viewBox="0 0 120 120" style="enable-background:new 0 0 120 120;" xml:space="preserve">
<style type="text/css">
	.st0{fill-rule:evenodd;clip-rule:evenodd;fill:#FFBA00;}
</style>
<path class="st0" d="M116.5,104.4L72.3,60.1l44-43.6c3.3-3.3,3.3-8.6,0-11.9c-3.3-3.3-8.7-3.3-12,0L60.3,48.2L15.7,3.6
	c-3.3-3.3-8.7-3.3-12,0c-3.3,3.3-3.3,8.7,0,12l44.5,44.5L3.5,104.6c-3.3,3.3-3.3,8.6,0,11.9c3.3,3.3,8.7,3.3,12,0l44.7-44.4
	l44.3,44.3c3.3,3.3,8.7,3.3,12,0C119.8,113.1,119.8,107.7,116.5,104.4z"/>
</svg>
