<svg xmlns="http://www.w3.org/2000/svg" width="74.88" height="51.44" viewBox="0 0 37.44 25.72">
  <defs>
    <style>
      .cls-1 {
        fill: #ffba00;
        fill-rule: evenodd;
      }
    </style>
  </defs>
  <path id="Forme_1287" data-name="Forme 1287" class="cls-1" d="M4278.04,2134.92a2,2,0,0,0-2.83-.24l-24,20.4-6.44-7.53a2.016,2.016,0,0,0-2.8-.56,2.048,2.048,0,0,0-.55,2.82,1.654,1.654,0,0,0,.33.37l7.7,9.08h0l0.15,0.15a0.573,0.573,0,0,1,.17.15,0.991,0.991,0,0,0,.17.11c0.07,0.04.14,0.08,0.2,0.12l0.22,0.07c0.06,0.02.13,0.04,0.2,0.06a1.478,1.478,0,0,0,.42,0,1.929,1.929,0,0,0,.34,0h0.05l0.3-.07h0.06l0.26-.12,0.08-.06,0.2-.15,25.57-21.72a2.037,2.037,0,0,0,.22-2.86A0.038,0.038,0,0,1,4278.04,2134.92Z" transform="translate(-4241.09 -2134.22)"/>
</svg>
