<svg xmlns="http://www.w3.org/2000/svg" width="122" height="92" viewBox="0 0 61 46">
  <defs>
    <style>
      .cls-1 {
        fill: #e7e7e7;
        fill-rule: evenodd;
      }
    </style>
  </defs>
  <path id="Forme_1267" data-name="Forme 1267" class="cls-1" d="M3956.91,2152.7a1.534,1.534,0,0,0,.87.31,1.443,1.443,0,0,0,1.06-.5,1.314,1.314,0,0,0-.19-1.91l-7.41-6.09a2.74,2.74,0,0,0-3.55,0l-7.4,6.09a1.357,1.357,0,0,0-.19,1.91,1.39,1.39,0,0,0,1.93.19l6.04-4.99v20.94a1.37,1.37,0,0,0,2.74,0v-20.94Zm9.21-19.1a11.077,11.077,0,0,0-2.49.25,19.435,19.435,0,0,0-36.29,8.07,9.623,9.623,0,0,0,1.37,19.16h12.45a1.355,1.355,0,1,0,0-2.71h-12.45a6.84,6.84,0,1,1,0-13.68,1.375,1.375,0,0,0,1.37-1.35,16.651,16.651,0,0,1,31.56-7.21,1.44,1.44,0,0,0,1.62.74,10.983,10.983,0,1,1,2.86,21.56h-8.34a1.355,1.355,0,1,0,0,2.71h8.34A13.77,13.77,0,1,0,3966.12,2133.6Z" transform="translate(-3919 -2124)"/>
</svg>
